# File created by Blade
# Date/Time:  Wed Jan 21 17:57:21 2015
#---------------------------------------------------------
:version 1.10
:name HOM
:units
  mass 1.0
  length 1.000000
  angle deg
:documentation
     Acclaim Skeleton File
:root
   axis xyz
   order TX TY TZ RX RY RZ
   position 0.000000 0.000000 0.000000
   orientation 0 0 0
:bonedata
   begin
      id 1
      name Spine_dum
      direction 0.000000 1.000000 0.000000
      length 7.067664
      axis 0.0 0.0 0.0 xyz
   end
   begin
      id 2
      name LeftUpLeg_dum
      direction 1.000000 0.000000 0.000000
      length 4.013002
      axis 0.0 0.0 0.0 xyz
   end
   begin
      id 3
      name RightUpLeg_dum
      direction -1.000000 0.000000 0.000000
      length 4.013002
      axis 0.0 0.0 0.0 xyz
   end
   begin
      id 4
      name Spine
      direction 0.000000 1.000000 0.000000
      length 0.000000
      axis 0.0 0.0 0.0 xyz
      dof rx ry rz
   end
   begin
      id 5
      name Spine_dum1
      direction 0.000000 1.000000 0.000000
      length 15.039886
      axis 0.0 0.0 0.0 xyz
   end
   begin
      id 6
      name Spine_dum2
      direction 0.000000 1.000000 0.000000
      length 10.530368
      axis 0.0 0.0 0.0 xyz
   end
   begin
      id 7
      name Spine_dum3
      direction 0.000000 1.000000 0.000000
      length 10.530368
      axis 0.0 0.0 0.0 xyz
   end
   begin
      id 8
      name Head
      direction 0.000000 1.000000 0.000000
      length 4.527550
      axis 0.0 0.0 0.0 xyz
      dof rx ry rz
   end
   begin
      id 9
      name LeftShoulder
      direction 1.000000 0.000000 0.000000
      length 7.028855
      axis 0.0 0.0 -90.0 xyz
      dof rx ry rz
   end
   begin
      id 10
      name LeftArm
      direction 1.000000 0.000000 0.000000
      length 10.797705
      axis 0.0 0.0 -90.0 xyz
      dof rx ry rz
   end
   begin
      id 11
      name LeftForeArm
      direction 1.000000 0.000000 0.000000
      length 7.907442
      axis 0.0 0.0 -90.0 xyz
      dof ry rz rx
   end
   begin
      id 12
      name LeftHand
      direction 0.000000 0.000000 0.000000
      length 0.000000
      axis 0.0 0.0 -90.0 xyz
      dof rx ry rz
   end
   begin
      id 13
      name LeftHand_dum1
      direction 0.000000 0.000000 0.000000
      length 0.000000
      axis 0.0 0.0 -90.0 xyz
   end
   begin
      id 14
      name LeftHand_dum2
      direction 1.000000 0.000000 0.000000
      length 3.937000
      axis 0.0 0.0 -90.0 xyz
   end
   begin
      id 15
      name LeftHandThumb1
      direction 0.000000 0.000000 1.000000
      length 3.937000
      axis 0.0 0.0 -90.0 xyz
      dof rx rz ry
   end
   begin
      id 16
      name RightShoulder
      direction -1.000000 0.000000 0.000000
      length 7.028855
      axis 0.0 0.0 90.0 xyz
      dof rx ry rz
   end
   begin
      id 17
      name RightArm
      direction -1.000000 0.000000 0.000000
      length 10.797705
      axis 0.0 0.0 90.0 xyz
      dof rx ry rz
   end
   begin
      id 18
      name RightForeArm
      direction -1.000000 0.000000 0.000000
      length 7.907442
      axis 0.0 0.0 90.0 xyz
      dof ry rz rx
   end
   begin
      id 19
      name RightHand
      direction 0.000000 0.000000 0.000000
      length 0.000000
      axis 0.0 0.0 90.0 xyz
      dof rx ry rz
   end
   begin
      id 20
      name RightHand_dum1
      direction 0.000000 0.000000 0.000000
      length 0.000000
      axis 0.0 0.0 90.0 xyz
   end
   begin
      id 21
      name RightHand_dum2
      direction -1.000000 0.000000 0.000000
      length 3.937000
      axis 0.0 0.0 90.0 xyz
   end
   begin
      id 22
      name RightHandThumb1
      direction 0.000000 0.000000 1.000000
      length 3.937000
      axis 0.0 0.0 90.0 xyz
      dof rx rz ry
   end
   begin
      id 23
      name LeftUpLeg
      direction 0.000000 -1.000000 0.000000
      length 16.899758
      axis 0.0 0.0 0.0 xyz
      dof rx ry rz
   end
   begin
      id 24
      name LeftLeg
      direction 0.000000 -1.000000 0.000000
      length 17.389183
      axis 0.0 0.0 0.0 xyz
      dof rx ry rz
   end
   begin
      id 25
      name LeftFoot
      direction 0.000000 -0.258819 0.965926
      length 4.924528
      axis 15.0 0.0 0.0 xyz
      dof rx ry rz
   end
   begin
      id 26
      name LeftToeBase
      direction 0.000000 0.000000 1.000000
      length 2.952750
      axis 0.0 0.0 0.0 xyz
      dof rx ry rz
   end
   begin
      id 27
      name RightUpLeg
      direction 0.000000 -1.000000 0.000000
      length 16.899758
      axis 0.0 0.0 0.0 xyz
      dof rx ry rz
   end
   begin
      id 28
      name RightLeg
      direction 0.000000 -1.000000 0.000000
      length 17.389183
      axis 0.0 0.0 0.0 xyz
      dof rx ry rz
   end
   begin
      id 29
      name RightFoot
      direction 0.000000 -0.258819 0.965926
      length 4.924528
      axis 15.0 0.0 0.0 xyz
      dof rx ry rz
   end
   begin
      id 30
      name RightToeBase
      direction 0.000000 0.000000 1.000000
      length 2.952750
      axis 0.0 0.0 0.0 xyz
      dof rx ry rz
   end
:hierarchy
   begin
      root Spine_dum LeftUpLeg_dum RightUpLeg_dum
      Spine_dum Spine
      LeftUpLeg_dum LeftUpLeg
      RightUpLeg_dum RightUpLeg
      Spine Spine_dum1 Spine_dum2 Spine_dum3
      Spine_dum1 Head
      Spine_dum2 LeftShoulder
      Spine_dum3 RightShoulder
      LeftShoulder LeftArm
      LeftArm LeftForeArm
      LeftForeArm LeftHand
      LeftHand LeftHand_dum1 LeftHand_dum2
      LeftHand_dum1 LeftHandThumb1
      RightShoulder RightArm
      RightArm RightForeArm
      RightForeArm RightHand
      RightHand RightHand_dum1 RightHand_dum2
      RightHand_dum1 RightHandThumb1
      LeftUpLeg LeftLeg
      LeftLeg LeftFoot
      LeftFoot LeftToeBase
      RightUpLeg RightLeg
      RightLeg RightFoot
      RightFoot RightToeBase
   end

# File created by Blade
# Date/Time:  Wed Jan 21 17:57:11 2015
# Frame Rate: 120.000 fps
#------------------------------------------------------
:FULLY-SPECIFIED
:DEGREES
205
root 13.680504 35.024743 -21.349505 -178.337706 0.776032 -175.836151
Spine 6.932811 2.869812 -9.619470
Head 113.691459 11.093389 188.262473
LeftShoulder -3.158204 -18.547572 1.900376
LeftArm 4.346520 13.759081 -48.822494
LeftForeArm -0.415487 -0.000000 9.954775
LeftHand -0.905858 0.000000 -1.725997
LeftHandThumb1 -26.253704 0.000000 33.147579
RightShoulder -13.280516 -24.710248 12.483188
RightArm 8.324002 -14.654912 76.650454
RightForeArm -29.408700 0.000000 23.987015
RightHand -4.173017 0.000000 3.088398
RightHandThumb1 -24.326973 -0.000000 -32.862282
LeftUpLeg 2.617394 15.575049 16.376126
LeftLeg -1.687783 -0.000000 0.000000
LeftFoot -16.118232 25.879582 -17.433910
LeftToeBase 27.510985 -0.000000 -0.000000
RightUpLeg -24.306399 -27.455207 -11.659323
RightLeg 43.595116 -0.000000 -0.000000
RightFoot 3.245898 7.870411 32.135322
RightToeBase 29.582409 -0.000000 -0.000000
206
root 13.627511 35.050885 -21.378104 -178.317495 0.425355 -175.648893
Spine 6.773976 2.821030 -9.656171
Head 113.407695 11.416354 188.302939
LeftShoulder -3.078281 -18.753121 2.192830
LeftArm 4.726347 14.029413 -48.493560
LeftForeArm -0.753643 0.000000 10.220194
LeftHand -1.133569 0.000000 -1.494216
LeftHandThumb1 -26.253704 0.000000 33.147579
RightShoulder -13.734011 -24.798335 13.042914
RightArm 7.746569 -14.048701 76.647034
RightForeArm -29.616900 -0.000000 24.536604
RightHand -4.022814 -0.000000 3.613624
RightHandThumb1 -24.326973 -0.000000 -32.862282
LeftUpLeg 2.662396 15.187716 16.436327
LeftLeg -2.008052 -0.000000 0.000000
LeftFoot -16.000337 26.047832 -17.327884
LeftToeBase 27.519289 -0.000000 -0.000000
RightUpLeg -23.741178 -27.723410 -12.259919
RightLeg 42.334035 -0.000000 -0.000000
RightFoot 1.991467 5.447865 31.729068
RightToeBase 29.938985 -0.000000 -0.000000
207
root 13.573878 35.072682 -21.407934 -178.360092 0.179287 -175.473767
Spine 6.672595 2.831793 -9.669699
Head 113.132774 11.701826 188.304977
LeftShoulder -3.018061 -18.970458 2.426772
LeftArm 5.036295 14.130762 -48.160786
LeftForeArm -0.886976 -0.000000 10.514486
LeftHand -1.172412 0.000000 -1.244101
LeftHandThumb1 -26.253704 0.000000 33.147579
RightShoulder -14.067101 -24.954389 13.516223
RightArm 7.295153 -13.404627 76.639140
RightForeArm -29.629511 -0.000000 24.952932
RightHand -3.993564 0.000000 4.150604
RightHandThumb1 -24.326973 -0.000000 -32.862282
LeftUpLeg 2.842493 14.791124 16.504399
LeftLeg -2.386953 -0.000000 0.000000
LeftFoot -15.923780 26.344890 -17.245237
LeftToeBase 27.460733 -0.000000 -0.000000
RightUpLeg -23.030803 -27.783414 -12.924837
RightLeg 40.868844 -0.000000 -0.000000
RightFoot 0.756226 2.234670 31.505127
RightToeBase 30.622010 -0.000000 -0.000000
208
root 13.519815 35.089575 -21.439489 -178.340677 -0.004202 -175.336509
Spine 6.477405 2.843628 -9.712870
Head 112.850097 11.886882 188.349994
LeftShoulder -3.039619 -19.165219 2.659601
LeftArm 5.277035 14.335774 -47.821752
LeftForeArm -1.062844 0.000000 10.959836
LeftHand -1.151805 -0.000000 -0.953091
LeftHandThumb1 -26.253704 0.000000 33.147579
RightShoulder -14.388281 -25.090201 13.960760
RightArm 6.878105 -12.881579 76.572415
RightForeArm -29.668407 0.000000 25.246091
RightHand -3.789971 -0.000000 4.344286
RightHandThumb1 -24.326973 -0.000000 -32.862282
LeftUpLeg 2.935847 14.610767 16.526301
LeftLeg -2.662762 -0.000000 0.000000
LeftFoot -15.878014 26.508716 -17.107426
LeftToeBase 27.504630 -0.000000 -0.000000
RightUpLeg -22.298333 -27.599783 -13.624786
RightLeg 39.219484 -0.000000 -0.000000
RightFoot -0.312601 -1.596906 31.165236
RightToeBase 30.707392 -0.000000 -0.000000
209
root 13.471718 35.101511 -21.475975 -178.403472 -0.251921 -175.188516
Spine 6.383963 2.822069 -9.711216
Head 112.570109 12.181195 188.275686
LeftShoulder -3.039221 -19.296612 2.853071
LeftArm 5.541999 14.206861 -47.520475
LeftForeArm -1.060503 0.000000 11.449806
LeftHand -1.188598 -0.000000 -0.808897
LeftHandThumb1 -26.253704 0.000000 33.147579
RightShoulder -14.642819 -25.166876 14.329912
RightArm 6.410637 -12.272706 76.555979
RightForeArm -29.738621 0.000000 25.554120
RightHand -3.762282 -0.000000 4.737833
RightHandThumb1 -24.326973 -0.000000 -32.862282
LeftUpLeg 3.080322 14.310181 16.594120
LeftLeg -2.909598 -0.000000 0.000000
LeftFoot -15.771480 26.672704 -16.868114
LeftToeBase 27.309166 -0.000000 -0.000000
RightUpLeg -21.329934 -27.392455 -14.370572
RightLeg 37.377150 -0.000000 -0.000000
RightFoot -0.952537 -5.698040 30.483233
RightToeBase 29.557500 -0.000000 -0.000000
210
root 13.423781 35.108099 -21.513376 -178.411308 -0.542266 -175.123459
Spine 6.234100 2.711924 -9.799760
Head 112.340134 12.274214 188.380662
LeftShoulder -3.117867 -19.349666 3.055864
LeftArm 5.832956 14.205064 -47.183198
LeftForeArm -1.163907 -0.000000 12.015963
LeftHand -1.207732 0.000000 -0.483326
LeftHandThumb1 -26.253704 0.000000 33.147579
RightShoulder -14.909475 -25.266439 14.682850
RightArm 6.050017 -11.673754 76.515556
RightForeArm -29.940599 0.000000 25.718580
RightHand -3.593972 0.000000 5.111245
RightHandThumb1 -24.326973 -0.000000 -32.862282
LeftUpLeg 3.133305 13.997590 16.563490
LeftLeg -3.110897 -0.000000 0.000000
LeftFoot -15.756502 26.795840 -16.690931
LeftToeBase 27.386484 -0.000000 -0.000000
RightUpLeg -20.285940 -27.053628 -15.202923
RightLeg 35.364733 -0.000000 -0.000000
RightFoot -1.072103 -9.997856 28.998312
RightToeBase 27.814940 -0.000000 -0.000000
211
root 13.378020 35.110365 -21.556842 -178.399625 -0.798830 -175.107842
Spine 6.021700 2.686190 -9.943104
Head 112.033980 12.613319 188.348390
LeftShoulder -3.155186 -19.340664 3.239973
LeftArm 6.129821 14.029055 -46.869606
LeftForeArm -1.155666 -0.000000 12.607595
LeftHand -1.243036 -0.000000 -0.181093
LeftHandThumb1 -26.253704 0.000000 33.147579
RightShoulder -15.180597 -25.316959 15.040259
RightArm 5.619758 -11.086274 76.483655
RightForeArm -30.189373 0.000000 25.893375
RightHand -3.615166 -0.000000 5.493256
RightHandThumb1 -24.326973 -0.000000 -32.862282
LeftUpLeg 3.188486 13.752688 16.496236
LeftLeg -3.302764 -0.000000 0.000000
LeftFoot -15.750488 26.855216 -16.546531
LeftToeBase 27.411005 -0.000000 -0.000000
RightUpLeg -19.172771 -26.565956 -16.071924
RightLeg 33.247804 -0.000000 -0.000000
RightFoot -0.764178 -14.259983 26.783242
RightToeBase 25.837553 -0.000000 -0.000000
